<mxfile host="app.diagrams.net" agent="Mozilla/5.0 (Windows NT 10.0; Win64; x64) AppleWebKit/537.36 (KHTML, like Gecko) Chrome/129.0.0.0 Safari/537.36" version="24.7.17">
  <diagram name="Page-1" id="OvtutyEiAZOTHKv4Te0A">
    <mxGraphModel dx="600" dy="395" grid="1" gridSize="10" guides="1" tooltips="1" connect="1" arrows="1" fold="1" page="1" pageScale="1" pageWidth="850" pageHeight="1100" math="0" shadow="0">
      <root>
        <mxCell id="0" />
        <mxCell id="1" parent="0" />
        <mxCell id="UFEtcohUNGnO7mP1xVN6-4" style="edgeStyle=orthogonalEdgeStyle;rounded=0;orthogonalLoop=1;jettySize=auto;html=1;exitX=0.5;exitY=1;exitDx=0;exitDy=0;entryX=0.5;entryY=0;entryDx=0;entryDy=0;" edge="1" parent="1" source="UFEtcohUNGnO7mP1xVN6-1" target="UFEtcohUNGnO7mP1xVN6-3">
          <mxGeometry relative="1" as="geometry" />
        </mxCell>
        <mxCell id="UFEtcohUNGnO7mP1xVN6-1" value="Pocetak" style="ellipse;whiteSpace=wrap;html=1;" vertex="1" parent="1">
          <mxGeometry x="350" y="10" width="80" height="40" as="geometry" />
        </mxCell>
        <mxCell id="UFEtcohUNGnO7mP1xVN6-2" value="" style="shape=trapezoid;perimeter=trapezoidPerimeter;whiteSpace=wrap;html=1;fixedSize=1;rotation=-180;" vertex="1" parent="1">
          <mxGeometry x="340" y="70" width="110" height="30" as="geometry" />
        </mxCell>
        <mxCell id="UFEtcohUNGnO7mP1xVN6-7" style="edgeStyle=orthogonalEdgeStyle;rounded=0;orthogonalLoop=1;jettySize=auto;html=1;exitX=0.5;exitY=1;exitDx=0;exitDy=0;entryX=0.5;entryY=0;entryDx=0;entryDy=0;" edge="1" parent="1" source="UFEtcohUNGnO7mP1xVN6-3" target="UFEtcohUNGnO7mP1xVN6-6">
          <mxGeometry relative="1" as="geometry" />
        </mxCell>
        <mxCell id="UFEtcohUNGnO7mP1xVN6-3" value="n" style="text;html=1;align=center;verticalAlign=middle;whiteSpace=wrap;rounded=0;" vertex="1" parent="1">
          <mxGeometry x="365" y="70" width="60" height="30" as="geometry" />
        </mxCell>
        <mxCell id="UFEtcohUNGnO7mP1xVN6-9" style="edgeStyle=orthogonalEdgeStyle;rounded=0;orthogonalLoop=1;jettySize=auto;html=1;exitX=0.5;exitY=1;exitDx=0;exitDy=0;entryX=0.5;entryY=0;entryDx=0;entryDy=0;" edge="1" parent="1" source="UFEtcohUNGnO7mP1xVN6-6" target="UFEtcohUNGnO7mP1xVN6-8">
          <mxGeometry relative="1" as="geometry" />
        </mxCell>
        <mxCell id="UFEtcohUNGnO7mP1xVN6-6" value="i = 1" style="rounded=0;whiteSpace=wrap;html=1;" vertex="1" parent="1">
          <mxGeometry x="350" y="120" width="95" height="30" as="geometry" />
        </mxCell>
        <mxCell id="UFEtcohUNGnO7mP1xVN6-11" style="edgeStyle=orthogonalEdgeStyle;rounded=0;orthogonalLoop=1;jettySize=auto;html=1;exitX=0.5;exitY=1;exitDx=0;exitDy=0;entryX=0.5;entryY=0;entryDx=0;entryDy=0;" edge="1" parent="1" source="UFEtcohUNGnO7mP1xVN6-8" target="UFEtcohUNGnO7mP1xVN6-10">
          <mxGeometry relative="1" as="geometry" />
        </mxCell>
        <mxCell id="UFEtcohUNGnO7mP1xVN6-19" style="edgeStyle=orthogonalEdgeStyle;rounded=0;orthogonalLoop=1;jettySize=auto;html=1;exitX=1;exitY=0.5;exitDx=0;exitDy=0;entryX=0.5;entryY=0;entryDx=0;entryDy=0;" edge="1" parent="1" source="UFEtcohUNGnO7mP1xVN6-8" target="UFEtcohUNGnO7mP1xVN6-18">
          <mxGeometry relative="1" as="geometry" />
        </mxCell>
        <mxCell id="UFEtcohUNGnO7mP1xVN6-8" value="i &amp;lt;=n" style="shape=hexagon;perimeter=hexagonPerimeter2;whiteSpace=wrap;html=1;fixedSize=1;" vertex="1" parent="1">
          <mxGeometry x="335" y="170" width="115" height="30" as="geometry" />
        </mxCell>
        <mxCell id="UFEtcohUNGnO7mP1xVN6-13" style="edgeStyle=orthogonalEdgeStyle;rounded=0;orthogonalLoop=1;jettySize=auto;html=1;exitX=0.5;exitY=1;exitDx=0;exitDy=0;entryX=0.5;entryY=0;entryDx=0;entryDy=0;" edge="1" parent="1" source="UFEtcohUNGnO7mP1xVN6-10" target="UFEtcohUNGnO7mP1xVN6-12">
          <mxGeometry relative="1" as="geometry" />
        </mxCell>
        <mxCell id="UFEtcohUNGnO7mP1xVN6-15" style="edgeStyle=orthogonalEdgeStyle;rounded=0;orthogonalLoop=1;jettySize=auto;html=1;exitX=1;exitY=0.5;exitDx=0;exitDy=0;" edge="1" parent="1" source="UFEtcohUNGnO7mP1xVN6-10">
          <mxGeometry relative="1" as="geometry">
            <mxPoint x="390" y="329.9999999999999" as="targetPoint" />
            <Array as="points">
              <mxPoint x="473" y="235" />
              <mxPoint x="473" y="310" />
              <mxPoint x="390" y="310" />
            </Array>
          </mxGeometry>
        </mxCell>
        <mxCell id="UFEtcohUNGnO7mP1xVN6-10" value="n mod i == 0" style="shape=hexagon;perimeter=hexagonPerimeter2;whiteSpace=wrap;html=1;fixedSize=1;" vertex="1" parent="1">
          <mxGeometry x="333" y="220" width="120" height="30" as="geometry" />
        </mxCell>
        <mxCell id="UFEtcohUNGnO7mP1xVN6-14" style="edgeStyle=orthogonalEdgeStyle;rounded=0;orthogonalLoop=1;jettySize=auto;html=1;exitX=0.5;exitY=1;exitDx=0;exitDy=0;" edge="1" parent="1" source="UFEtcohUNGnO7mP1xVN6-12">
          <mxGeometry relative="1" as="geometry">
            <mxPoint x="390" y="330" as="targetPoint" />
            <Array as="points">
              <mxPoint x="390" y="300" />
            </Array>
          </mxGeometry>
        </mxCell>
        <mxCell id="UFEtcohUNGnO7mP1xVN6-12" value="i" style="shape=trapezoid;perimeter=trapezoidPerimeter;whiteSpace=wrap;html=1;fixedSize=1;" vertex="1" parent="1">
          <mxGeometry x="335" y="270" width="120" height="30" as="geometry" />
        </mxCell>
        <mxCell id="UFEtcohUNGnO7mP1xVN6-17" style="edgeStyle=orthogonalEdgeStyle;rounded=0;orthogonalLoop=1;jettySize=auto;html=1;exitX=0;exitY=0.5;exitDx=0;exitDy=0;" edge="1" parent="1" source="UFEtcohUNGnO7mP1xVN6-16">
          <mxGeometry relative="1" as="geometry">
            <mxPoint x="390" y="160" as="targetPoint" />
            <Array as="points">
              <mxPoint x="310" y="345" />
              <mxPoint x="310" y="160" />
              <mxPoint x="390" y="160" />
            </Array>
          </mxGeometry>
        </mxCell>
        <mxCell id="UFEtcohUNGnO7mP1xVN6-16" value="i = i + 1" style="rounded=0;whiteSpace=wrap;html=1;" vertex="1" parent="1">
          <mxGeometry x="330" y="330" width="120" height="30" as="geometry" />
        </mxCell>
        <mxCell id="UFEtcohUNGnO7mP1xVN6-18" value="Kraj" style="ellipse;whiteSpace=wrap;html=1;" vertex="1" parent="1">
          <mxGeometry x="510" y="210" width="60" height="20" as="geometry" />
        </mxCell>
        <mxCell id="UFEtcohUNGnO7mP1xVN6-20" value="NE" style="text;html=1;align=center;verticalAlign=middle;whiteSpace=wrap;rounded=0;" vertex="1" parent="1">
          <mxGeometry x="500" y="160" width="60" height="30" as="geometry" />
        </mxCell>
        <mxCell id="UFEtcohUNGnO7mP1xVN6-21" value="DA" style="text;html=1;align=center;verticalAlign=middle;whiteSpace=wrap;rounded=0;" vertex="1" parent="1">
          <mxGeometry x="383" y="194" width="60" height="30" as="geometry" />
        </mxCell>
        <mxCell id="UFEtcohUNGnO7mP1xVN6-22" value="DA" style="text;html=1;align=center;verticalAlign=middle;whiteSpace=wrap;rounded=0;" vertex="1" parent="1">
          <mxGeometry x="382" y="244" width="60" height="30" as="geometry" />
        </mxCell>
        <mxCell id="UFEtcohUNGnO7mP1xVN6-23" value="NE" style="text;html=1;align=center;verticalAlign=middle;whiteSpace=wrap;rounded=0;" vertex="1" parent="1">
          <mxGeometry x="439" y="213" width="60" height="30" as="geometry" />
        </mxCell>
      </root>
    </mxGraphModel>
  </diagram>
</mxfile>
